<svg id="Yet" xmlns="http://www.w3.org/2000/svg" xmlns:xlink="http://www.w3.org/1999/xlink" width="132.169" height="58.71" viewBox="0 0 132.169 58.71">
  <defs>
    <clipPath id="clip-path">
      <rect id="Rectangle_11769" data-name="Rectangle 11769" width="132.169" height="58.71" fill="none"/>
    </clipPath>
  </defs>
  <g id="Group_11128" data-name="Group 11128" clip-path="url(#clip-path)">
    <path id="Path_4621" data-name="Path 4621" d="M136.619,100h-34.1A2.524,2.524,0,0,0,100,102.521v34.1a2.524,2.524,0,0,0,2.521,2.521h34.1a2.524,2.524,0,0,0,2.521-2.521v-34.1A2.524,2.524,0,0,0,136.619,100m-.534,36.084H103.055V103.055h33.029Z" transform="translate(-90.215 -90.215)" fill="#0d0d82"/>
    <path id="Path_4622" data-name="Path 4622" d="M179.345,195.639v2.216h-2.623a2.231,2.231,0,0,1-2.217-2.205v-5.938a6.272,6.272,0,0,1,4.841,5.928m9.469.22a6.354,6.354,0,0,1,4.841-6.15v5.932a2.232,2.232,0,0,1-2.211,2.214h-2.629Zm-12.1,4.992h2.63v2.811c0,1.825-1.008,2.059-1.886,2.059h-5.118v3h5.118c2.966,0,4.883-1.984,4.883-5.056v-2.811h3.475v7.886h3v-7.886h2.636a5.242,5.242,0,0,0,5.2-5.2v-9.117h-1.5a9.35,9.35,0,0,0-9.337,9.321v2h-3.475v-2.221a9.243,9.243,0,0,0-9.337-9.1h-1.5l0,9.125a5.241,5.241,0,0,0,5.207,5.194" transform="translate(-154.725 -168.281)" fill="#0d0d82"/>
    <path id="Path_4623" data-name="Path 4623" d="M646.062,179.978h-5.976l2.737,4.434v13.224h-5.629v-12.3l-9.831-15.074h6.747l5.937,9.638,5.9-9.638h6.631Z" transform="translate(-565.976 -153.603)" fill="#0d0d82"/>
    <path id="Path_4624" data-name="Path 4624" d="M850.362,254.628c0-5.32,3.585-10.294,10.332-10.294s10.294,4.973,10.294,10.294c0,.463-.077,1.311-.077,1.311h-15a4.785,4.785,0,0,0,5.012,4.125c1.966,0,3.316-.81,3.855-2.313h5.9c-.925,4.048-4.4,7.171-9.908,7.171-6.862,0-10.409-4.935-10.409-10.293m14.958-2.275a4.909,4.909,0,0,0-9.176,0Z" transform="translate(-767.154 -220.426)" fill="#0d0d82"/>
    <path id="Path_4625" data-name="Path 4625" d="M1068.436,215.422v-7.633h-3.547v-4.935h3.547v-5.012h5.4v5.012h5.552v4.935h-5.552v6.747c0,2.622,1.041,3.585,3.084,3.585a16.469,16.469,0,0,0,2.467-.27v4.742a16.54,16.54,0,0,1-3.508.385c-4.588,0-7.441-2.544-7.441-7.556" transform="translate(-960.69 -178.483)" fill="#0d0d82"/>
  </g>
</svg>
